<?xml version="1.0" encoding="utf-8"?>
<!-- Generator: Adobe Illustrator 22.1.0, SVG Export Plug-In . SVG Version: 6.00 Build 0)  -->
<svg version="1.1" id="Layer_1" xmlns="http://www.w3.org/2000/svg" xmlns:xlink="http://www.w3.org/1999/xlink" x="0px" y="0px"
	 viewBox="0 0 294 31" style="enable-background:new 0 0 294 31;" xml:space="preserve">
<style type="text/css">
	.st0{fill:#FFFFFF;}
	.st1{fill:#17000F;}
	.st2{fill:#83C331;}
</style>
<path class="st0" d="M290.3,26.3h0.5c0.3,0,0.7,0.1,0.7,0.4c0,0.4-0.3,0.5-0.6,0.5h-0.6V26.3z M289.7,29h0.6v-1.4h0.4l0.8,1.4h0.7
	l-0.9-1.4c0.5,0,0.9-0.3,0.9-0.9c0-0.7-0.5-1-1.3-1h-1.2V29z M288.6,27.4c0-1.3,1-2.3,2.2-2.3s2.2,1,2.2,2.3s-1,2.3-2.2,2.3
	C289.6,29.7,288.6,28.7,288.6,27.4 M287.8,27.4c0,1.8,1.4,2.9,3,2.9s3-1.2,3-2.9c0-1.8-1.4-2.9-3-2.9
	C289.2,24.5,287.8,25.6,287.8,27.4 M284,0.8h1.6v29.4H284V0.8z M277.6,26L277.6,26c-0.3,0.7-0.7,1.3-1.2,1.8
	c-0.5,0.6-1.1,1.1-1.7,1.5c-0.7,0.5-1.5,0.8-2.3,1c-0.9,0.3-1.8,0.4-2.8,0.4c-2.2,0-4-0.5-5.2-1.5s-1.9-2.5-1.9-4.5
	c0-1.2,0.2-2.2,0.7-3s1.1-1.4,1.9-1.9s1.6-0.8,2.5-1s1.8-0.3,2.7-0.4l2.4-0.2c1.1-0.1,2-0.2,2.7-0.4c0.6-0.2,1.1-0.4,1.5-0.7
	c0.3-0.3,0.5-0.7,0.6-1.2c0.1-0.5,0.1-1.1,0.1-1.9c0-0.6-0.1-1.1-0.3-1.6c-0.2-0.5-0.6-1-1-1.3c-0.5-0.4-1.1-0.7-1.8-0.9
	c-0.7-0.2-1.6-0.3-2.7-0.3c-1.9,0-3.4,0.5-4.6,1.4s-1.8,2.4-1.9,4.3h-1.6c0.1-2.3,0.9-4.1,2.2-5.3c1.4-1.2,3.4-1.7,5.9-1.7
	c2.6,0,4.4,0.5,5.6,1.5s1.8,2.3,1.8,3.9v12.3c0,0.3,0,0.6,0,0.9s0.1,0.6,0.2,0.8c0.1,0.2,0.2,0.4,0.4,0.6c0.2,0.2,0.5,0.2,0.8,0.2
	s0.7,0,1.2-0.1V30c-0.4,0.1-0.8,0.2-1.3,0.2c-0.6,0-1.1-0.1-1.5-0.2c-0.4-0.2-0.7-0.4-0.8-0.7c-0.2-0.3-0.3-0.6-0.4-1
	s-0.1-0.8-0.1-1.2L277.6,26L277.6,26L277.6,26z M277.6,18.2c-0.4,0.5-1,0.8-1.8,0.9c-0.8,0.2-1.7,0.3-2.6,0.4l-2.6,0.3
	c-0.8,0.1-1.5,0.2-2.3,0.3c-0.8,0.2-1.5,0.4-2.1,0.8s-1.1,0.9-1.5,1.5s-0.6,1.4-0.6,2.4c0,1.6,0.5,2.7,1.5,3.5s2.4,1.1,4.1,1.1
	c1.8,0,3.2-0.3,4.2-1c1-0.6,1.8-1.4,2.4-2.2c0.5-0.8,0.9-1.7,1.1-2.4c0.2-0.8,0.2-1.3,0.2-1.6L277.6,18.2L277.6,18.2L277.6,18.2z
	 M242,0.8h1.5v12.7h0.1c0.3-0.8,0.7-1.5,1.3-2.2c0.5-0.6,1.2-1.2,1.9-1.6c0.7-0.4,1.5-0.7,2.3-0.9s1.7-0.3,2.6-0.3
	c1.6,0,2.9,0.3,4.1,0.8c1.1,0.5,2.1,1.3,2.9,2.3s1.3,2.1,1.7,3.4c0.4,1.3,0.5,2.7,0.5,4.1c0,2.5-0.3,4.5-1,6.1
	c-0.7,1.5-1.5,2.7-2.5,3.5s-2,1.3-3,1.6c-1,0.3-1.9,0.4-2.7,0.4c-1.4,0-2.6-0.2-3.6-0.7c-1-0.4-1.8-0.9-2.4-1.5
	c-0.6-0.6-1.1-1.2-1.4-1.8c-0.3-0.6-0.5-1-0.6-1.3h-0.1v4.7H242V0.8L242,0.8z M251.7,29.4c1.4,0,2.6-0.3,3.6-0.9
	c1-0.6,1.8-1.4,2.3-2.4c0.6-1,1-2.1,1.3-3.3c0.3-1.2,0.4-2.4,0.4-3.6s-0.2-2.3-0.5-3.4s-0.8-2.1-1.4-2.9c-0.6-0.9-1.5-1.6-2.4-2.1
	c-1-0.5-2.1-0.8-3.3-0.8c-1.4,0-2.6,0.2-3.6,0.7s-1.9,1.1-2.5,1.9c-0.7,0.8-1.2,1.8-1.5,2.9s-0.5,2.4-0.5,3.7c0,1.3,0.1,2.6,0.5,3.8
	c0.3,1.2,0.8,2.3,1.4,3.3c0.6,0.9,1.5,1.7,2.5,2.3C249,29.1,250.2,29.4,251.7,29.4 M220.3,19.6c0-1.5,0.2-2.9,0.6-4.3
	c0.4-1.3,1.1-2.5,1.9-3.5c0.8-1,1.8-1.8,3-2.4s2.6-0.9,4.2-0.9c1.6,0,2.9,0.3,4.2,0.9c1.2,0.6,2.2,1.4,3.1,2.4
	c0.8,1,1.4,2.2,1.9,3.5c0.4,1.3,0.6,2.7,0.6,4.3c0,1.5-0.2,2.9-0.6,4.3c-0.4,1.3-1,2.5-1.9,3.5c-0.8,1-1.9,1.8-3.1,2.4
	c-1.2,0.6-2.6,0.9-4.2,0.9c-1.6,0-3-0.3-4.2-0.9s-2.2-1.4-3-2.4s-1.5-2.2-1.9-3.5C220.5,22.5,220.3,21.1,220.3,19.6 M221.8,19.6
	c0,1.3,0.2,2.5,0.5,3.7c0.4,1.2,0.9,2.2,1.6,3.1c0.7,0.9,1.6,1.6,2.6,2.2c1,0.5,2.2,0.8,3.5,0.8s2.5-0.3,3.5-0.8s1.9-1.3,2.6-2.2
	c0.7-0.9,1.2-2,1.6-3.1c0.4-1.2,0.5-2.4,0.5-3.7c0-1.2-0.2-2.5-0.5-3.6s-0.9-2.2-1.6-3.1c-0.7-0.9-1.6-1.6-2.6-2.2
	c-1-0.5-2.2-0.8-3.5-0.8s-2.5,0.3-3.5,0.8s-1.9,1.3-2.6,2.2c-0.7,0.9-1.2,2-1.6,3.1C222,17.2,221.8,18.4,221.8,19.6 M216.4,0.8h1.6
	v29.4h-1.6V0.8z M186.3,15.7c0-2.1,0.3-4.1,0.9-6c0.6-1.9,1.5-3.5,2.7-5c1.2-1.4,2.7-2.6,4.3-3.4c1.7-0.8,3.7-1.3,5.9-1.3
	c1.5,0,2.9,0.2,4.3,0.7c1.4,0.5,2.6,1.1,3.7,1.9c1.1,0.8,2,1.9,2.7,3.1c0.8,1.2,1.2,2.6,1.5,4.1h-1.7c-0.7-2.6-1.9-4.6-3.7-6.1
	s-4-2.2-6.8-2.2c-2,0-3.7,0.4-5.2,1.1s-2.8,1.8-3.8,3.1s-1.8,2.8-2.3,4.5s-0.8,3.5-0.8,5.3c0,1.9,0.3,3.6,0.8,5.3s1.3,3.1,2.3,4.3
	c1,1.2,2.3,2.2,3.8,2.9c1.5,0.7,3.3,1.1,5.3,1.1c1.8,0,3.3-0.3,4.7-0.9s2.6-1.4,3.6-2.4c1-1.1,1.7-2.3,2.2-3.8s0.7-3.1,0.6-4.9
	h-10.8v-1.6h12.4v14.4h-1.6V24h-0.1c-0.4,1.1-0.9,2-1.6,2.9c-0.7,0.9-1.6,1.6-2.5,2.2c-1,0.6-2.1,1.1-3.3,1.4s-2.5,0.5-3.7,0.5
	c-2.2,0-4.2-0.4-5.9-1.2c-1.7-0.8-3.2-1.9-4.3-3.3c-1.2-1.4-2.1-3-2.7-4.8C186.6,19.8,186.3,17.8,186.3,15.7"/>
<path class="st0" d="M167.3,0.8v14.7l14.9-14.7h5.1l-12.4,11.9l12.9,17.6h-5l-10.6-14.9l-4.9,4.6v10.3h-3.9V0.8H167.3z M146.4,0.8
	c4.5,0,8,1.2,10.5,3.5c2.4,2.3,3.7,5.8,3.7,10.6c0,2.5-0.3,4.7-0.8,6.6c-0.6,1.9-1.4,3.5-2.6,4.8c-1.2,1.3-2.6,2.3-4.4,3
	c-1.8,0.7-3.9,1-6.3,1h-10.1V0.8H146.4L146.4,0.8z M146.8,27c0.4,0,1,0,1.6-0.1c0.7-0.1,1.4-0.2,2.1-0.5c0.8-0.3,1.5-0.7,2.2-1.1
	c0.7-0.5,1.4-1.2,2-2c0.6-0.9,1.1-1.9,1.4-3.2c0.4-1.3,0.6-2.8,0.6-4.6s-0.2-3.3-0.5-4.7s-0.9-2.6-1.7-3.5c-0.8-1-1.8-1.7-3-2.2
	s-2.8-0.8-4.6-0.8h-6.6V27H146.8L146.8,27z M126.5,5c-1.5-1-3.3-1.6-5.3-1.6c-1.8,0-3.3,0.3-4.5,1c-1.2,0.6-2.3,1.6-3.1,2.7
	c-0.8,1.1-1.4,2.4-1.8,3.8c-0.4,1.5-0.6,3-0.6,4.5c0,1.7,0.2,3.3,0.6,4.8s1,2.8,1.8,3.9s1.9,2,3.1,2.7c1.3,0.7,2.8,1,4.5,1
	c1.3,0,2.4-0.2,3.4-0.6s1.9-1,2.6-1.8s1.3-1.7,1.7-2.7c0.4-1.1,0.7-2.2,0.7-3.4h3.9c-0.4,3.7-1.7,6.6-3.8,8.7
	c-2.2,2.1-5.1,3.1-8.9,3.1c-2.3,0-4.3-0.4-6-1.2c-1.7-0.8-3.1-1.9-4.3-3.2c-1.1-1.4-2-3-2.5-4.9c-0.6-1.9-0.8-3.9-0.8-6
	s0.3-4.2,0.9-6.1s1.5-3.5,2.7-4.9s2.6-2.5,4.4-3.3s3.8-1.2,6-1.2c1.5,0,3,0.2,4.4,0.6s2.6,1,3.7,1.8c1.1,0.8,2,1.8,2.7,3
	s1.2,2.6,1.4,4.1h-3.9C128.9,7.6,128,6,126.5,5 M84,0.4c-8.5,0-15.4,6.9-15.4,15.4S75.5,31.2,84,31.2s15.4-6.9,15.4-15.4
	S92.5,0.4,84,0.4 M49.8,0.1c8.5,0,15.4,6.9,15.4,15.4s-6.9,15.4-15.4,15.4S34.4,24,34.4,15.5C34.3,7,41.2,0.1,49.8,0.1 M15.5,0.1
	C24,0.1,30.9,7,30.9,15.5S24,30.9,15.5,30.9S0.1,24,0.1,15.5S7,0.1,15.5,0.1"/>
<path class="st1" d="M128.8-134.7h0.5c0.3,0,0.7,0.1,0.7,0.4c0,0.4-0.3,0.5-0.6,0.5h-0.6L128.8-134.7L128.8-134.7z M128.1-132h0.6
	v-1.4h0.4l0.8,1.4h0.7l-0.9-1.4c0.5,0,0.9-0.3,0.9-0.9c0-0.7-0.5-1-1.3-1h-1.2V-132z M127.1-133.6c0-1.3,1-2.3,2.2-2.3
	s2.2,1,2.2,2.3s-1,2.3-2.2,2.3S127.1-132.3,127.1-133.6 M126.3-133.6c0,1.8,1.4,2.9,3,2.9c1.6,0,3-1.2,3-2.9c0-1.8-1.4-2.9-3-2.9
	S126.3-135.4,126.3-133.6 M122.5-160.2h1.6v29.4h-1.6V-160.2z M116-135L116-135c-0.3,0.7-0.7,1.3-1.2,1.8c-0.5,0.6-1.1,1.1-1.7,1.5
	c-0.7,0.5-1.5,0.8-2.3,1c-0.9,0.3-1.8,0.4-2.8,0.4c-2.2,0-4-0.5-5.2-1.5s-1.9-2.5-1.9-4.5c0-1.2,0.2-2.2,0.7-3s1.1-1.4,1.9-1.9
	s1.6-0.8,2.5-1s1.8-0.3,2.7-0.4l2.4-0.2c1.1-0.1,2-0.2,2.7-0.4c0.6-0.2,1.1-0.4,1.5-0.7c0.3-0.3,0.5-0.7,0.6-1.2s0.1-1.1,0.1-1.9
	c0-0.6-0.1-1.1-0.3-1.6c-0.2-0.5-0.6-1-1-1.3c-0.5-0.4-1.1-0.7-1.8-0.9c-0.7-0.2-1.6-0.3-2.7-0.3c-1.9,0-3.4,0.5-4.6,1.4
	s-1.8,2.4-1.9,4.3h-1.6c0.1-2.3,0.9-4.1,2.2-5.3c1.4-1.2,3.4-1.7,5.9-1.7c2.6,0,4.4,0.5,5.6,1.5s1.8,2.3,1.8,3.9v12.3
	c0,0.3,0,0.6,0,0.9c0,0.3,0.1,0.6,0.2,0.8s0.2,0.4,0.4,0.6c0.2,0.2,0.5,0.2,0.8,0.2s0.7,0,1.2-0.1v1.3c-0.4,0.1-0.8,0.2-1.3,0.2
	c-0.6,0-1.1-0.1-1.5-0.2c-0.4-0.2-0.7-0.4-0.8-0.7c-0.2-0.3-0.3-0.6-0.4-1s-0.1-0.8-0.1-1.2L116-135L116-135L116-135z M116-142.8
	c-0.4,0.5-1,0.8-1.8,0.9c-0.8,0.2-1.7,0.3-2.6,0.4l-2.6,0.3c-0.8,0.1-1.5,0.2-2.3,0.3c-0.8,0.2-1.5,0.4-2.1,0.8
	c-0.6,0.4-1.1,0.9-1.5,1.5s-0.6,1.4-0.6,2.4c0,1.6,0.5,2.7,1.5,3.5s2.4,1.1,4.1,1.1c1.8,0,3.2-0.3,4.2-1c1-0.6,1.8-1.4,2.4-2.2
	c0.5-0.8,0.9-1.7,1.1-2.4c0.2-0.8,0.2-1.3,0.2-1.6L116-142.8L116-142.8L116-142.8z M80.5-160.2H82v12.7h0.1c0.3-0.8,0.7-1.5,1.3-2.2
	c0.5-0.6,1.2-1.2,1.9-1.6c0.7-0.4,1.5-0.7,2.3-0.9s1.7-0.3,2.6-0.3c1.6,0,2.9,0.3,4.1,0.8c1.1,0.5,2.1,1.3,2.9,2.3s1.3,2.1,1.7,3.4
	c0.4,1.3,0.5,2.7,0.5,4.1c0,2.5-0.3,4.5-1,6.1c-0.7,1.5-1.5,2.7-2.5,3.5s-2,1.3-3,1.6s-1.9,0.4-2.7,0.4c-1.4,0-2.6-0.2-3.6-0.7
	c-1-0.4-1.8-0.9-2.4-1.5s-1.1-1.2-1.4-1.8s-0.5-1-0.6-1.3H82v4.7h-1.5V-160.2L80.5-160.2z M90.1-131.6c1.4,0,2.6-0.3,3.6-0.9
	c1-0.6,1.8-1.4,2.3-2.4c0.6-1,1-2.1,1.3-3.3s0.4-2.4,0.4-3.6c0-1.2-0.2-2.3-0.5-3.4c-0.3-1.1-0.8-2.1-1.4-2.9
	c-0.6-0.9-1.5-1.6-2.4-2.1c-1-0.5-2.1-0.8-3.3-0.8c-1.4,0-2.6,0.2-3.6,0.7s-1.9,1.1-2.5,1.9c-0.7,0.8-1.2,1.8-1.5,2.9
	c-0.3,1.1-0.5,2.4-0.5,3.7s0.1,2.6,0.5,3.8c0.3,1.2,0.8,2.3,1.4,3.3c0.6,0.9,1.5,1.7,2.5,2.3C87.4-131.9,88.7-131.6,90.1-131.6
	 M58.8-141.4c0-1.5,0.2-2.9,0.6-4.3c0.4-1.3,1.1-2.5,1.9-3.5c0.8-1,1.8-1.8,3-2.4c1.2-0.6,2.6-0.9,4.2-0.9s2.9,0.3,4.2,0.9
	c1.2,0.6,2.2,1.4,3.1,2.4c0.8,1,1.4,2.2,1.9,3.5c0.4,1.3,0.6,2.7,0.6,4.3c0,1.5-0.2,2.9-0.6,4.3c-0.4,1.3-1,2.5-1.9,3.5
	c-0.8,1-1.9,1.8-3.1,2.4c-1.2,0.6-2.6,0.9-4.2,0.9s-3-0.3-4.2-0.9c-1.2-0.6-2.2-1.4-3-2.4s-1.5-2.2-1.9-3.5
	C59-138.5,58.7-139.9,58.8-141.4 M60.3-141.4c0,1.3,0.2,2.5,0.5,3.7c0.4,1.2,0.9,2.2,1.6,3.1c0.7,0.9,1.6,1.6,2.6,2.2
	c1,0.5,2.2,0.8,3.5,0.8s2.5-0.3,3.5-0.8s1.9-1.3,2.6-2.2s1.2-2,1.6-3.1c0.4-1.2,0.5-2.4,0.5-3.7c0-1.2-0.2-2.5-0.5-3.6
	s-0.9-2.2-1.6-3.1c-0.7-0.9-1.6-1.6-2.6-2.2c-1-0.5-2.2-0.8-3.5-0.8s-2.5,0.3-3.5,0.8s-1.9,1.3-2.6,2.2c-0.7,0.9-1.2,2-1.6,3.1
	C60.5-143.8,60.3-142.6,60.3-141.4 M54.9-160.2h1.6v29.4h-1.6V-160.2z M24.8-145.3c0-2.1,0.3-4.1,0.9-6s1.5-3.5,2.7-5
	c1.2-1.4,2.7-2.6,4.3-3.4c1.7-0.8,3.7-1.3,5.9-1.3c1.5,0,2.9,0.2,4.3,0.7c1.4,0.5,2.6,1.1,3.7,1.9c1.1,0.8,2,1.9,2.7,3.1
	c0.8,1.2,1.2,2.6,1.5,4.1h-1.7c-0.7-2.6-1.9-4.6-3.7-6.1s-4-2.2-6.8-2.2c-2,0-3.7,0.4-5.2,1.1c-1.5,0.7-2.8,1.8-3.8,3.1
	s-1.8,2.8-2.3,4.5s-0.8,3.5-0.8,5.3c0,1.9,0.3,3.6,0.8,5.3s1.3,3.1,2.3,4.3s2.3,2.2,3.8,2.9s3.3,1.1,5.3,1.1c1.8,0,3.3-0.3,4.7-0.9
	c1.4-0.6,2.6-1.4,3.6-2.4c1-1.1,1.7-2.3,2.2-3.8s0.7-3.1,0.6-4.9H39v-1.6h12.4v14.4h-1.6v-6.3h-0.1c-0.4,1.1-0.9,2-1.6,2.9
	c-0.7,0.9-1.6,1.6-2.5,2.2c-1,0.6-2.1,1.1-3.3,1.4c-1.2,0.3-2.5,0.5-3.7,0.5c-2.2,0-4.2-0.4-5.9-1.2s-3.2-1.9-4.3-3.3
	c-1.2-1.4-2.1-3-2.7-4.8C25.1-141.2,24.8-143.2,24.8-145.3"/>
<text transform="matrix(1 0 0 1 683 384)" style="font-family:'MyriadPro-Regular'; font-size:12px;">83c331</text>
<text transform="matrix(1 0 0 1 683 384)" style="font-family:'MyriadPro-Regular'; font-size:12px;">83c331</text>
<path class="st1" d="M5.8-160.2v14.7l14.9-14.7h5.1l-12.4,11.9l12.9,17.6h-5l-10.6-14.9L5.8-141v10.3H1.9v-29.5L5.8-160.2L5.8-160.2
	z M-15.1-160.2c4.5,0,8,1.2,10.5,3.5c2.4,2.3,3.7,5.8,3.7,10.6c0,2.5-0.3,4.7-0.8,6.6c-0.6,1.9-1.4,3.5-2.6,4.8s-2.6,2.3-4.4,3
	s-3.9,1-6.3,1h-10.1v-29.5L-15.1-160.2L-15.1-160.2z M-14.8-134c0.4,0,1,0,1.6-0.1c0.7-0.1,1.4-0.2,2.1-0.5c0.8-0.3,1.5-0.7,2.2-1.1
	c0.7-0.5,1.4-1.2,2-2c0.6-0.9,1.1-1.9,1.4-3.2c0.4-1.3,0.6-2.8,0.6-4.6s-0.2-3.3-0.5-4.7s-0.9-2.6-1.7-3.5c-0.8-1-1.8-1.7-3-2.2
	s-2.8-0.8-4.6-0.8h-6.6v22.8L-14.8-134L-14.8-134z M-35-156c-1.5-1-3.3-1.6-5.3-1.6c-1.8,0-3.3,0.3-4.5,1c-1.2,0.6-2.3,1.6-3.1,2.7
	c-0.8,1.1-1.4,2.4-1.8,3.8c-0.4,1.5-0.6,3-0.6,4.5c0,1.7,0.2,3.3,0.6,4.8c0.4,1.5,1,2.8,1.8,3.9c0.8,1.1,1.9,2,3.1,2.7
	c1.3,0.7,2.8,1,4.5,1c1.3,0,2.4-0.2,3.4-0.6c1-0.4,1.9-1,2.6-1.8c0.7-0.8,1.3-1.7,1.7-2.7c0.4-1.1,0.7-2.2,0.7-3.4h3.9
	c-0.4,3.7-1.7,6.6-3.8,8.7c-2.2,2.1-5.1,3.1-8.9,3.1c-2.3,0-4.3-0.4-6-1.2s-3.1-1.9-4.3-3.2c-1.1-1.4-2-3-2.5-4.9
	c-0.6-1.9-0.8-3.9-0.8-6s0.3-4.2,0.9-6.1c0.6-1.9,1.5-3.5,2.7-4.9s2.6-2.5,4.4-3.3c1.8-0.8,3.8-1.2,6-1.2c1.5,0,3,0.2,4.4,0.6
	c1.4,0.4,2.6,1,3.7,1.8c1.1,0.8,2,1.8,2.7,3s1.2,2.6,1.4,4.1H-32C-32.6-153.4-33.6-155-35-156 M-77.5-160.6
	c-8.5,0-15.4,6.9-15.4,15.4s6.9,15.4,15.4,15.4s15.4-6.9,15.4-15.4S-69-160.6-77.5-160.6 M-111.8-160.9c8.5,0,15.4,6.9,15.4,15.4
	s-6.9,15.4-15.4,15.4s-15.4-6.9-15.4-15.4C-127.2-154-120.3-160.9-111.8-160.9 M-146-160.9c8.5,0,15.4,6.9,15.4,15.4
	s-6.9,15.4-15.4,15.4s-15.4-6.9-15.4-15.4S-154.5-160.9-146-160.9"/>
<path class="st2" d="M-77.5-160.6c-8.5,0-15.4,6.9-15.4,15.4s6.9,15.4,15.4,15.4s15.4-6.9,15.4-15.4S-69-160.6-77.5-160.6"/>
</svg>
