<svg xmlns="http://www.w3.org/2000/svg" viewBox="0 0 293.7 31.2"><defs><style>.cls-1{fill:#fff;}.cls-2{fill:#83c331;}</style></defs><title>white logo</title><g id="Layer_2" data-name="Layer 2"><g id="Layer_1-2" data-name="Layer 1"><path class="cls-1" d="M290.2,26.3h.5c.3,0,.7.1.7.4s-.3.5-.6.5h-.6v-.9Zm-.7,2.7h.6V27.6h.4l.8,1.4h.7l-.9-1.4a.84.84,0,0,0,.9-.9c0-.7-.5-1-1.3-1h-1.2Zm-1-1.6a2.2,2.2,0,1,1,2.2,2.3,2.24,2.24,0,0,1-2.2-2.3m-.8,0a2.86,2.86,0,0,0,3,2.9,2.92,2.92,0,0,0,3-2.9,3,3,0,0,0-6,0M283.9.8h1.6V30.2h-1.6ZM277.4,26h0a5.67,5.67,0,0,1-1.2,1.8,8,8,0,0,1-1.7,1.5,6.71,6.71,0,0,1-2.3,1,8.63,8.63,0,0,1-2.8.4,8.05,8.05,0,0,1-5.2-1.5,5.58,5.58,0,0,1-1.9-4.5,5.56,5.56,0,0,1,.7-3,5.75,5.75,0,0,1,1.9-1.9,7.71,7.71,0,0,1,2.5-1,25.12,25.12,0,0,1,2.7-.4l2.4-.2a15.62,15.62,0,0,0,2.7-.4,5.23,5.23,0,0,0,1.5-.7,2.28,2.28,0,0,0,.6-1.2,10.32,10.32,0,0,0,.1-1.9,4.15,4.15,0,0,0-.3-1.6,3.25,3.25,0,0,0-1-1.3,5.08,5.08,0,0,0-1.8-.9,10.06,10.06,0,0,0-2.7-.3,7.41,7.41,0,0,0-4.6,1.4,5.46,5.46,0,0,0-1.9,4.3h-1.6a7.43,7.43,0,0,1,2.2-5.3c1.4-1.2,3.4-1.7,5.9-1.7s4.4.5,5.6,1.5A4.84,4.84,0,0,1,279,14V27.2a1.88,1.88,0,0,0,.2.8,2.09,2.09,0,0,0,.4.6,1.08,1.08,0,0,0,.8.2,5.74,5.74,0,0,0,1.2-.1V30a5.07,5.07,0,0,1-1.3.2,6.05,6.05,0,0,1-1.5-.2c-.4-.2-.7-.4-.8-.7a3,3,0,0,1-.4-1,4.87,4.87,0,0,1-.1-1.2l-.1-1.1Zm0-7.8a2.61,2.61,0,0,1-1.8.9,20.24,20.24,0,0,1-2.6.4l-2.6.3-2.3.3a6.56,6.56,0,0,0-2.1.8,5.36,5.36,0,0,0-1.5,1.5,4.27,4.27,0,0,0-.6,2.4,4.13,4.13,0,0,0,1.5,3.5,6.43,6.43,0,0,0,4.1,1.1,7.26,7.26,0,0,0,4.2-1,8.53,8.53,0,0,0,2.4-2.2,10.06,10.06,0,0,0,1.1-2.4,6,6,0,0,0,.2-1.6v-4ZM241.9.8h1.5V13.5h.1a7.1,7.1,0,0,1,1.3-2.2,7.35,7.35,0,0,1,1.9-1.6,9.17,9.17,0,0,1,2.3-.9,10.9,10.9,0,0,1,2.6-.3,10.33,10.33,0,0,1,4.1.8,8,8,0,0,1,2.9,2.3,9.88,9.88,0,0,1,1.7,3.4,14,14,0,0,1,.5,4.1,15.25,15.25,0,0,1-1,6.1,9.55,9.55,0,0,1-2.5,3.5,8.79,8.79,0,0,1-3,1.6,9.29,9.29,0,0,1-2.7.4A8,8,0,0,1,248,30a7,7,0,0,1-2.4-1.5,7.34,7.34,0,0,1-1.4-1.8,11.82,11.82,0,0,1-.6-1.3h-.2v4.7h-1.5V.8Zm9.6,28.6a6.87,6.87,0,0,0,3.6-.9,5.89,5.89,0,0,0,2.3-2.4,12,12,0,0,0,1.3-3.3,14.72,14.72,0,0,0,.4-3.6,12.7,12.7,0,0,0-.5-3.4,8.7,8.7,0,0,0-1.4-2.9,6.89,6.89,0,0,0-2.4-2.1,7.31,7.31,0,0,0-3.3-.8,8,8,0,0,0-3.6.7,6.92,6.92,0,0,0-2.5,1.9,7.3,7.3,0,0,0-1.5,2.9,14.38,14.38,0,0,0-.5,3.7,12,12,0,0,0,.5,3.8,12.15,12.15,0,0,0,1.4,3.3,7.91,7.91,0,0,0,2.5,2.3,8.41,8.41,0,0,0,3.7.8m-31.3-9.8a15.4,15.4,0,0,1,.6-4.3,10.78,10.78,0,0,1,1.9-3.5,8.86,8.86,0,0,1,3-2.4,9.28,9.28,0,0,1,4.2-.9,9.58,9.58,0,0,1,4.2.9,10.34,10.34,0,0,1,3.1,2.4,13.07,13.07,0,0,1,1.9,3.5,14.42,14.42,0,0,1,.6,4.3,15.4,15.4,0,0,1-.6,4.3,9.6,9.6,0,0,1-5,5.9,10.25,10.25,0,0,1-8.4,0,8.86,8.86,0,0,1-3-2.4,10.78,10.78,0,0,1-1.9-3.5,12.44,12.44,0,0,1-.6-4.3m1.5,0a15,15,0,0,0,.5,3.7,10.1,10.1,0,0,0,1.6,3.1,9.22,9.22,0,0,0,2.6,2.2,7.62,7.62,0,0,0,9.6-2.2,11.39,11.39,0,0,0,1.6-3.1,11.42,11.42,0,0,0,.5-3.7,14.22,14.22,0,0,0-.5-3.6,8.85,8.85,0,0,0-4.2-5.3,7.62,7.62,0,0,0-9.6,2.2,11.39,11.39,0,0,0-1.6,3.1,14.87,14.87,0,0,0-.5,3.6M216.3.8h1.6V30.2h-1.6ZM186.2,15.7a19.81,19.81,0,0,1,.9-6,15.12,15.12,0,0,1,2.7-5,14.07,14.07,0,0,1,4.3-3.4A13.83,13.83,0,0,1,200,0a12.51,12.51,0,0,1,4.3.7A14.35,14.35,0,0,1,208,2.6a10.09,10.09,0,0,1,2.7,3.1,11.2,11.2,0,0,1,1.5,4.1h-1.7a11.5,11.5,0,0,0-3.7-6.1A10.11,10.11,0,0,0,200,1.5a12.07,12.07,0,0,0-5.2,1.1A10.41,10.41,0,0,0,191,5.7a13.68,13.68,0,0,0-2.3,4.5,18.9,18.9,0,0,0-.8,5.3,18.36,18.36,0,0,0,.8,5.3,11.83,11.83,0,0,0,2.3,4.3,11,11,0,0,0,3.8,2.9,12.53,12.53,0,0,0,5.3,1.1,11.59,11.59,0,0,0,4.7-.9,11.35,11.35,0,0,0,3.6-2.4,10.27,10.27,0,0,0,2.2-3.8,13,13,0,0,0,.6-4.9H200.4V15.5h12.4V29.9h-1.6V23.6h-.1a10.24,10.24,0,0,1-1.6,2.9,10.41,10.41,0,0,1-2.5,2.2,12.15,12.15,0,0,1-3.3,1.4,15.68,15.68,0,0,1-3.7.5,13.82,13.82,0,0,1-5.9-1.2,11.8,11.8,0,0,1-4.3-3.3,14.19,14.19,0,0,1-2.7-4.8,15.66,15.66,0,0,1-.9-5.6"/><path class="cls-1" d="M167.2.8V15.5L182.1.8h5.1L174.8,12.7l12.9,17.6h-5L172.1,15.4,167.2,20V30.3h-3.9V.8ZM146.3.8c4.5,0,8,1.2,10.5,3.5s3.7,5.8,3.7,10.6a25.93,25.93,0,0,1-.8,6.6,12.35,12.35,0,0,1-2.6,4.8,11.49,11.49,0,0,1-4.4,3,17.36,17.36,0,0,1-6.3,1H136.3V.8Zm.3,26.2a9.74,9.74,0,0,0,1.6-.1,8,8,0,0,0,2.1-.5,15.05,15.05,0,0,0,2.2-1.1,9.47,9.47,0,0,0,2-2,9.4,9.4,0,0,0,1.4-3.2,15.56,15.56,0,0,0,.6-4.6,21.85,21.85,0,0,0-.5-4.7,7.66,7.66,0,0,0-1.7-3.5,7.33,7.33,0,0,0-3-2.2,12.24,12.24,0,0,0-4.6-.8h-6.6V27.1l6.5-.1ZM126.4,5a9.47,9.47,0,0,0-5.3-1.6,8.82,8.82,0,0,0-4.5,1,8.93,8.93,0,0,0-3.1,2.7,12.12,12.12,0,0,0-1.8,3.8,17.4,17.4,0,0,0-.6,4.5,18.57,18.57,0,0,0,.6,4.8,11.67,11.67,0,0,0,1.8,3.9,10.09,10.09,0,0,0,3.1,2.7,9.33,9.33,0,0,0,4.5,1,9,9,0,0,0,3.4-.6,6.77,6.77,0,0,0,2.6-1.8,9.48,9.48,0,0,0,1.7-2.7,9.83,9.83,0,0,0,.7-3.4h3.9a14,14,0,0,1-3.8,8.7c-2.2,2.1-5.1,3.1-8.9,3.1a14,14,0,0,1-6-1.2,13.82,13.82,0,0,1-4.3-3.2,13.38,13.38,0,0,1-2.5-4.9,19.77,19.77,0,0,1-.8-6,20.46,20.46,0,0,1,.9-6.1,13.74,13.74,0,0,1,2.7-4.9,12.16,12.16,0,0,1,4.4-3.3,14.61,14.61,0,0,1,6-1.2,16.11,16.11,0,0,1,4.4.6,11.58,11.58,0,0,1,3.7,1.8,9.72,9.72,0,0,1,2.7,3,11.08,11.08,0,0,1,1.4,4.1h-3.9a8.32,8.32,0,0,0-3-4.8M83.9.4A15.4,15.4,0,1,0,99.3,15.8,15.41,15.41,0,0,0,83.9.4"/><path class="cls-2" d="M83.9.4A15.4,15.4,0,1,0,99.3,15.8,15.41,15.41,0,0,0,83.9.4"/><path class="cls-1" d="M49.6.1A15.4,15.4,0,1,1,34.2,15.5,15.41,15.41,0,0,1,49.6.1"/><path class="cls-1" d="M15.4.1A15.4,15.4,0,1,1,0,15.5,15.41,15.41,0,0,1,15.4.1"/></g></g></svg>